<svg width="44" height="44" viewBox="0 0 44 44" fill="none" xmlns="http://www.w3.org/2000/svg">
<rect x="0.5" y="0.5" width="43" height="43" rx="21.5" stroke="url(#paint0_linear_628_3958)"/>
<rect x="0.5" y="0.5" width="43" height="43" rx="21.5" stroke="url(#paint1_linear_628_3958)"/>
<path d="M20.3477 26.3447C20.6638 26.2072 20.9794 26.0682 21.2939 25.9277C23.9866 24.7256 26.6193 23.4156 29.1934 22C26.6193 20.5844 23.9866 19.2744 21.2939 18.0723C20.9794 17.9318 20.6638 17.7928 20.3477 17.6553C20.5904 17.2184 20.8334 16.7816 21.0762 16.3447C21.3599 16.5405 21.6443 16.7349 21.9297 16.9277C24.4985 18.6637 27.1331 20.2813 29.833 21.7813L30.2266 22L29.833 22.2188C27.1331 23.7187 24.4985 25.3363 21.9297 27.0723C21.6443 27.2651 21.3599 27.4595 21.0762 27.6553C20.8334 27.2184 20.5904 26.7816 20.3477 26.3447Z" fill="#F2F6FD"/>
<path d="M28.4371 22.2749C26.9275 22.3236 25.4179 22.3725 23.9084 22.4212C20.7682 22.5225 17.6278 22.6237 14.4876 22.725C14.2293 22.7333 13.97 22.7418 13.7116 22.7501C13.7116 22.2502 13.7117 21.7502 13.7117 21.2503C13.9701 21.2586 14.2289 21.2667 14.4872 21.2751C17.6275 21.3764 20.7678 21.4776 23.9081 21.5789C25.4177 21.6276 26.9277 21.6758 28.4373 21.7245C28.6955 21.7328 28.9537 21.7414 29.2119 21.7497C29.2119 21.9164 29.2122 22.0836 29.2122 22.2502C28.9539 22.2586 28.6954 22.2666 28.4371 22.2749Z" fill="#F2F6FD"/>
<defs>
<linearGradient id="paint0_linear_628_3958" x1="0.157143" y1="1.09123e-07" x2="18.4932" y2="13.8733" gradientUnits="userSpaceOnUse">
<stop stop-color="#F2F6FD"/>
<stop offset="1" stop-color="#F2F6FD" stop-opacity="0"/>
</linearGradient>
<linearGradient id="paint1_linear_628_3958" x1="35.9857" y1="9.5" x2="63.8623" y2="31.74" gradientUnits="userSpaceOnUse">
<stop stop-color="#F2F6FD" stop-opacity="0"/>
<stop offset="1" stop-color="#F2F6FD"/>
</linearGradient>
</defs>
</svg>
