<svg width="45" height="44" viewBox="0 0 45 44" fill="none" xmlns="http://www.w3.org/2000/svg">
<rect x="1" y="0.5" width="43" height="43" rx="21.5" stroke="url(#paint0_linear_13_205)"/>
<rect x="1" y="0.5" width="43" height="43" rx="21.5" stroke="url(#paint1_linear_13_205)"/>
<path d="M17.8675 20.6358C17.4305 20.8786 16.9934 21.1214 16.5563 21.3642C16.7521 21.648 16.9464 21.9327 17.1393 22.2181C18.8753 24.787 20.4933 27.4214 21.9933 30.1214C21.9933 30.1214 21.9933 30.1214 21.9933 30.1214L22.2119 30.5148L22.4304 30.1214C23.9304 27.4214 25.5484 24.787 27.2845 22.2181C27.4774 21.9327 27.6717 21.648 27.8675 21.3642C27.4305 21.1214 26.9934 20.8786 26.5563 20.6358C26.4188 20.952 26.2798 21.2673 26.1393 21.5819C24.8753 24.413 23.4933 27.1786 21.9933 29.8786L22.4304 29.8786C22.4304 29.8786 22.4304 29.8786 22.4304 29.8786C20.9304 27.1786 19.5484 24.413 18.2845 21.5819C18.144 21.2673 18.0051 20.952 17.8675 20.6358Z" fill="#F2F6FD"/>
<path d="M21.9619 29.5C22.1286 29.5 22.2952 29.5 22.4619 29.5C22.4702 29.2417 22.4786 28.9833 22.4869 28.725C22.5356 27.2154 22.5843 25.7058 22.633 24.1962C22.7343 21.0558 22.8356 17.9154 22.9369 14.775C22.9452 14.5167 22.9536 14.2583 22.9619 14C22.4619 14 21.9619 14 21.4619 14C21.4702 14.2583 21.4786 14.5167 21.4869 14.775C21.5882 17.9154 21.6895 21.0558 21.7908 24.1962C21.8395 25.7058 21.8882 27.2154 21.9369 28.725C21.9452 28.9833 21.9536 29.2417 21.9619 29.5Z" fill="#F2F6FD"/>
<defs>
<linearGradient id="paint0_linear_13_205" x1="0.657143" y1="1.09123e-07" x2="18.9932" y2="13.8733" gradientUnits="userSpaceOnUse">
<stop stop-color="#F2F6FD"/>
<stop offset="1" stop-color="#F2F6FD" stop-opacity="0"/>
</linearGradient>
<linearGradient id="paint1_linear_13_205" x1="36.4857" y1="9.5" x2="64.3623" y2="31.74" gradientUnits="userSpaceOnUse">
<stop stop-color="#F2F6FD" stop-opacity="0"/>
<stop offset="1" stop-color="#F2F6FD"/>
</linearGradient>
</defs>
</svg>
