<svg width="1760" height="24" viewBox="0 0 1760 24" fill="none" xmlns="http://www.w3.org/2000/svg">
<path d="M0 15C0.056775 14.9426 0.113695 14.8857 0.170769 14.8294C0.525608 14.4789 0.901718 14.148 1.29695 13.8436C5.72797 10.2255 11.2498 12.167 15.8018 14.0137C15.8792 14.0437 15.9569 14.0739 16.0351 14.1046C21.4136 16.134 27.4295 14.2681 30.9552 10.4411C31.352 9.99186 31.7078 9.5099 32 9C31.5606 9.38995 31.0909 9.72831 30.6053 10.0295C26.3464 12.5215 21.1679 13.0805 17.0636 11.501C16.9795 11.4676 16.8957 11.4347 16.8122 11.4024C11.7828 9.28915 4.99041 9.87437 1.2595 13.7986C0.887062 14.1333 0.525634 14.4789 0.170769 14.8294C0.113695 14.8857 0.056775 14.9426 0 15Z" fill="#5C6F91"/>
<path d="M90.9473 15C91.004 14.9426 91.061 14.8857 91.118 14.8294C91.4729 14.4789 91.849 14.148 92.2442 13.8436C96.6752 10.2255 102.197 12.167 106.749 14.0137C106.826 14.0437 106.904 14.0739 106.982 14.1046C112.361 16.134 118.377 14.2681 121.902 10.4411C122.299 9.99186 122.655 9.5099 122.947 9C122.508 9.38995 122.038 9.72831 121.553 10.0295C117.294 12.5215 112.115 13.0805 108.011 11.501C107.927 11.4676 107.843 11.4347 107.759 11.4024C102.73 9.28915 95.9377 9.87437 92.2068 13.7986C91.8343 14.1333 91.4729 14.4789 91.118 14.8294C91.061 14.8857 91.004 14.9426 90.9473 15Z" fill="#5C6F91"/>
<path d="M181.895 15C181.951 14.9426 182.008 14.8857 182.065 14.8294C182.42 14.4789 182.796 14.148 183.191 13.8436C187.623 10.2255 193.144 12.167 197.696 14.0137C197.774 14.0437 197.851 14.0739 197.93 14.1046C203.308 16.134 209.324 14.2681 212.85 10.4411C213.247 9.99186 213.602 9.5099 213.895 9C213.455 9.38995 212.985 9.72831 212.5 10.0295C208.241 12.5215 203.062 13.0805 198.958 11.501C198.874 11.4676 198.79 11.4347 198.707 11.4024C193.677 9.28915 186.885 9.87437 183.154 13.7986C182.782 14.1333 182.42 14.4789 182.065 14.8294C182.008 14.8857 181.951 14.9426 181.895 15Z" fill="#5C6F91"/>
<path d="M272.842 15C272.899 14.9426 272.956 14.8857 273.013 14.8294C273.368 14.4789 273.744 14.148 274.139 13.8436C278.57 10.2255 284.092 12.167 288.644 14.0137C288.721 14.0437 288.799 14.0739 288.877 14.1046C294.256 16.134 300.272 14.2681 303.797 10.4411C304.194 9.99186 304.55 9.5099 304.842 9C304.403 9.38995 303.933 9.72831 303.448 10.0295C299.189 12.5215 294.01 13.0805 289.906 11.501C289.822 11.4676 289.738 11.4347 289.654 11.4024C284.625 9.28915 277.833 9.87437 274.102 13.7986C273.729 14.1333 273.368 14.4789 273.013 14.8294C272.956 14.8857 272.899 14.9426 272.842 15Z" fill="#5C6F91"/>
<path d="M363.79 15C363.846 14.9426 363.903 14.8857 363.96 14.8294C364.315 14.4789 364.691 14.148 365.087 13.8436C369.518 10.2255 375.039 12.167 379.591 14.0137C379.669 14.0437 379.746 14.0739 379.825 14.1046C385.203 16.134 391.219 14.2681 394.745 10.4411C395.142 9.99186 395.497 9.5099 395.79 9C395.35 9.38995 394.88 9.72831 394.395 10.0295C390.136 12.5215 384.957 13.0805 380.853 11.501C380.769 11.4676 380.685 11.4347 380.602 11.4024C375.572 9.28915 368.78 9.87437 365.049 13.7986C364.677 14.1333 364.315 14.4789 363.96 14.8294C363.903 14.8857 363.846 14.9426 363.79 15Z" fill="#5C6F91"/>
<path d="M454.737 15C454.794 14.9426 454.851 14.8857 454.908 14.8294C455.262 14.4789 455.639 14.148 456.034 13.8436C460.465 10.2255 465.987 12.167 470.539 14.0137C470.616 14.0437 470.694 14.0739 470.772 14.1046C476.15 16.134 482.166 14.2681 485.692 10.4411C486.089 9.99186 486.445 9.5099 486.737 9C486.297 9.38995 485.828 9.72831 485.342 10.0295C481.083 12.5215 475.905 13.0805 471.8 11.501C471.716 11.4676 471.633 11.4347 471.549 11.4024C466.52 9.28915 459.727 9.87437 455.996 13.7986C455.624 14.1333 455.262 14.4789 454.908 14.8294C454.851 14.8857 454.794 14.9426 454.737 15Z" fill="#5C6F91"/>
<path d="M545.684 15C545.741 14.9426 545.798 14.8857 545.855 14.8294C546.21 14.4789 546.586 14.148 546.981 13.8436C551.412 10.2255 556.934 12.167 561.486 14.0137C561.563 14.0437 561.641 14.0739 561.719 14.1046C567.098 16.134 573.114 14.2681 576.639 10.4411C577.036 9.99186 577.392 9.5099 577.684 9C577.245 9.38995 576.775 9.72831 576.289 10.0295C572.03 12.5215 566.852 13.0805 562.748 11.501C562.664 11.4676 562.58 11.4347 562.496 11.4024C557.467 9.28915 550.674 9.87437 546.944 13.7986C546.571 14.1333 546.21 14.4789 545.855 14.8294C545.798 14.8857 545.741 14.9426 545.684 15Z" fill="#5C6F91"/>
<path d="M636.632 15C636.689 14.9426 636.746 14.8857 636.803 14.8294C637.157 14.4789 637.534 14.148 637.929 13.8436C642.36 10.2255 647.882 12.167 652.434 14.0137C652.511 14.0437 652.589 14.0739 652.667 14.1046C658.045 16.134 664.061 14.2681 667.587 10.4411C667.984 9.99186 668.34 9.5099 668.632 9C668.192 9.38995 667.723 9.72831 667.237 10.0295C662.978 12.5215 657.8 13.0805 653.695 11.501C653.611 11.4676 653.528 11.4347 653.444 11.4024C648.415 9.28915 641.622 9.87437 637.891 13.7986C637.519 14.1333 637.157 14.4789 636.803 14.8294C636.746 14.8857 636.689 14.9426 636.632 15Z" fill="#5C6F91"/>
<path d="M727.579 15C727.636 14.9426 727.693 14.8857 727.75 14.8294C728.105 14.4789 728.481 14.148 728.876 13.8436C733.307 10.2255 738.829 12.167 743.381 14.0137C743.458 14.0437 743.536 14.0739 743.614 14.1046C748.993 16.134 755.009 14.2681 758.534 10.4411C758.931 9.99186 759.287 9.5099 759.579 9C759.14 9.38995 758.67 9.72831 758.184 10.0295C753.925 12.5215 748.747 13.0805 744.643 11.501C744.559 11.4676 744.475 11.4347 744.391 11.4024C739.362 9.28915 732.57 9.87437 728.839 13.7986C728.466 14.1333 728.105 14.4789 727.75 14.8294C727.693 14.8857 727.636 14.9426 727.579 15Z" fill="#5C6F91"/>
<path d="M818.526 15C818.583 14.9426 818.64 14.8857 818.697 14.8294C819.052 14.4789 819.428 14.148 819.823 13.8436C824.254 10.2255 829.776 12.167 834.328 14.0137C834.406 14.0437 834.483 14.0739 834.561 14.1046C839.94 16.134 845.956 14.2681 849.482 10.4411C849.878 9.99186 850.234 9.5099 850.526 9C850.087 9.38995 849.617 9.72831 849.132 10.0295C844.873 12.5215 839.694 13.0805 835.59 11.501C835.506 11.4676 835.422 11.4347 835.339 11.4024C830.309 9.28915 823.517 9.87437 819.786 13.7986C819.413 14.1333 819.052 14.4789 818.697 14.8294C818.64 14.8857 818.583 14.9426 818.526 15Z" fill="#5C6F91"/>
<path d="M909.474 15C909.53 14.9426 909.587 14.8857 909.644 14.8294C909.999 14.4789 910.375 14.148 910.771 13.8436C915.202 10.2255 920.723 12.167 925.275 14.0137C925.353 14.0437 925.431 14.0739 925.509 14.1046C930.887 16.134 936.903 14.2681 940.429 10.4411C940.826 9.99186 941.181 9.5099 941.474 9C941.034 9.38995 940.564 9.72831 940.079 10.0295C935.82 12.5215 930.642 13.0805 926.537 11.501C926.453 11.4676 926.369 11.4347 926.286 11.4024C921.256 9.28915 914.464 9.87437 910.733 13.7986C910.361 14.1333 909.999 14.4789 909.644 14.8294C909.587 14.8857 909.53 14.9426 909.474 15Z" fill="#5C6F91"/>
<path d="M1000.42 15C1000.48 14.9426 1000.54 14.8857 1000.59 14.8294C1000.95 14.4789 1001.32 14.148 1001.72 13.8436C1006.15 10.2255 1011.67 12.167 1016.22 14.0137C1016.3 14.0437 1016.38 14.0739 1016.46 14.1046C1021.83 16.134 1027.85 14.2681 1031.38 10.4411C1031.77 9.99186 1032.13 9.5099 1032.42 9C1031.98 9.38995 1031.51 9.72831 1031.03 10.0295C1026.77 12.5215 1021.59 13.0805 1017.48 11.501C1017.4 11.4676 1017.32 11.4347 1017.23 11.4024C1012.2 9.28915 1005.41 9.87437 1001.68 13.7986C1001.31 14.1333 1000.95 14.4789 1000.59 14.8294C1000.54 14.8857 1000.48 14.9426 1000.42 15Z" fill="#5C6F91"/>
<path d="M1091.37 15C1091.43 14.9426 1091.48 14.8857 1091.54 14.8294C1091.89 14.4789 1092.27 14.148 1092.67 13.8436C1097.1 10.2255 1102.62 12.167 1107.17 14.0137C1107.25 14.0437 1107.33 14.0739 1107.4 14.1046C1112.78 16.134 1118.8 14.2681 1122.32 10.4411C1122.72 9.99186 1123.08 9.5099 1123.37 9C1122.93 9.38995 1122.46 9.72831 1121.97 10.0295C1117.72 12.5215 1112.54 13.0805 1108.43 11.501C1108.35 11.4676 1108.26 11.4347 1108.18 11.4024C1103.15 9.28915 1096.36 9.87437 1092.63 13.7986C1092.26 14.1333 1091.89 14.4789 1091.54 14.8294C1091.48 14.8857 1091.43 14.9426 1091.37 15Z" fill="#5C6F91"/>
<path d="M1182.32 15C1182.37 14.9426 1182.43 14.8857 1182.49 14.8294C1182.84 14.4789 1183.22 14.148 1183.61 13.8436C1188.04 10.2255 1193.57 12.167 1198.12 14.0137C1198.2 14.0437 1198.27 14.0739 1198.35 14.1046C1203.73 16.134 1209.75 14.2681 1213.27 10.4411C1213.67 9.99186 1214.02 9.5099 1214.32 9C1213.88 9.38995 1213.41 9.72831 1212.92 10.0295C1208.66 12.5215 1203.48 13.0805 1199.38 11.501C1199.3 11.4676 1199.21 11.4347 1199.13 11.4024C1194.1 9.28915 1187.31 9.87437 1183.58 13.7986C1183.2 14.1333 1182.84 14.4789 1182.49 14.8294C1182.43 14.8857 1182.37 14.9426 1182.32 15Z" fill="#5C6F91"/>
<path d="M1273.26 15C1273.32 14.9426 1273.38 14.8857 1273.43 14.8294C1273.79 14.4789 1274.16 14.148 1274.56 13.8436C1278.99 10.2255 1284.51 12.167 1289.07 14.0137C1289.14 14.0437 1289.22 14.0739 1289.3 14.1046C1294.68 16.134 1300.69 14.2681 1304.22 10.4411C1304.62 9.99186 1304.97 9.5099 1305.26 9C1304.82 9.38995 1304.35 9.72831 1303.87 10.0295C1299.61 12.5215 1294.43 13.0805 1290.33 11.501C1290.24 11.4676 1290.16 11.4347 1290.08 11.4024C1285.05 9.28915 1278.25 9.87437 1274.52 13.7986C1274.15 14.1333 1273.79 14.4789 1273.43 14.8294C1273.38 14.8857 1273.32 14.9426 1273.26 15Z" fill="#5C6F91"/>
<path d="M1364.21 15C1364.27 14.9426 1364.32 14.8857 1364.38 14.8294C1364.74 14.4789 1365.11 14.148 1365.51 13.8436C1369.94 10.2255 1375.46 12.167 1380.01 14.0137C1380.09 14.0437 1380.17 14.0739 1380.25 14.1046C1385.62 16.134 1391.64 14.2681 1395.17 10.4411C1395.56 9.99186 1395.92 9.5099 1396.21 9C1395.77 9.38995 1395.3 9.72831 1394.82 10.0295C1390.56 12.5215 1385.38 13.0805 1381.27 11.501C1381.19 11.4676 1381.11 11.4347 1381.02 11.4024C1375.99 9.28915 1369.2 9.87437 1365.47 13.7986C1365.1 14.1333 1364.74 14.4789 1364.38 14.8294C1364.32 14.8857 1364.27 14.9426 1364.21 15Z" fill="#5C6F91"/>
<path d="M1455.16 15C1455.21 14.9426 1455.27 14.8857 1455.33 14.8294C1455.68 14.4789 1456.06 14.148 1456.46 13.8436C1460.89 10.2255 1466.41 12.167 1470.96 14.0137C1471.04 14.0437 1471.12 14.0739 1471.19 14.1046C1476.57 16.134 1482.59 14.2681 1486.11 10.4411C1486.51 9.99186 1486.87 9.5099 1487.16 9C1486.72 9.38995 1486.25 9.72831 1485.76 10.0295C1481.5 12.5215 1476.33 13.0805 1472.22 11.501C1472.14 11.4676 1472.05 11.4347 1471.97 11.4024C1466.94 9.28915 1460.15 9.87437 1456.42 13.7986C1456.05 14.1333 1455.68 14.4789 1455.33 14.8294C1455.27 14.8857 1455.21 14.9426 1455.16 15Z" fill="#5C6F91"/>
<path d="M1546.11 15C1546.16 14.9426 1546.22 14.8857 1546.28 14.8294C1546.63 14.4789 1547.01 14.148 1547.4 13.8436C1551.83 10.2255 1557.36 12.167 1561.91 14.0137C1561.98 14.0437 1562.06 14.0739 1562.14 14.1046C1567.52 16.134 1573.54 14.2681 1577.06 10.4411C1577.46 9.99186 1577.81 9.5099 1578.11 9C1577.67 9.38995 1577.2 9.72831 1576.71 10.0295C1572.45 12.5215 1567.27 13.0805 1563.17 11.501C1563.08 11.4676 1563 11.4347 1562.92 11.4024C1557.89 9.28915 1551.1 9.87437 1547.36 13.7986C1546.99 14.1333 1546.63 14.4789 1546.28 14.8294C1546.22 14.8857 1546.16 14.9426 1546.11 15Z" fill="#5C6F91"/>
<path d="M1637.05 15C1637.11 14.9426 1637.17 14.8857 1637.22 14.8294C1637.58 14.4789 1637.95 14.148 1638.35 13.8436C1642.78 10.2255 1648.3 12.167 1652.85 14.0137C1652.93 14.0437 1653.01 14.0739 1653.09 14.1046C1658.47 16.134 1664.48 14.2681 1668.01 10.4411C1668.4 9.99186 1668.76 9.5099 1669.05 9C1668.61 9.38995 1668.14 9.72831 1667.66 10.0295C1663.4 12.5215 1658.22 13.0805 1654.12 11.501C1654.03 11.4676 1653.95 11.4347 1653.86 11.4024C1648.84 9.28915 1642.04 9.87437 1638.31 13.7986C1637.94 14.1333 1637.58 14.4789 1637.22 14.8294C1637.17 14.8857 1637.11 14.9426 1637.05 15Z" fill="#5C6F91"/>
<path d="M1728 15C1728.06 14.9426 1728.11 14.8857 1728.17 14.8294C1728.53 14.4789 1728.9 14.148 1729.3 13.8436C1733.73 10.2255 1739.25 12.167 1743.8 14.0137C1743.88 14.0437 1743.96 14.0739 1744.04 14.1046C1749.41 16.134 1755.43 14.2681 1758.96 10.4411C1759.35 9.99186 1759.71 9.5099 1760 9C1759.56 9.38995 1759.09 9.72831 1758.61 10.0295C1754.35 12.5215 1749.17 13.0805 1745.06 11.501C1744.98 11.4676 1744.9 11.4347 1744.81 11.4024C1739.78 9.28915 1732.99 9.87437 1729.26 13.7986C1728.89 14.1333 1728.53 14.4789 1728.17 14.8294C1728.11 14.8857 1728.06 14.9426 1728 15Z" fill="#5C6F91"/>
</svg>
