<svg width="105" height="20" viewBox="0 0 105 20" fill="none" xmlns="http://www.w3.org/2000/svg">
<g clip-path="url(#clip0_19_47)">
<path d="M96.5231 0.329468L103.125 17.3375C103.379 17.9896 103.66 18.0349 103.967 18.2885C104.293 18.524 104.583 18.6508 104.837 18.6689V19.6197C104.07 19.6197 103.545 19.3572 102.989 19.33C102.434 19.3028 101.639 19.1535 100.897 19.1535C100.063 19.1535 99.2668 19.1535 98.4249 19.33C97.583 19.5066 97.0121 19.5835 96.5774 19.6197V18.6689C97.5012 18.6327 98.0808 18.4787 98.3162 18.207C98.5698 17.9172 98.5155 17.7179 98.1532 16.7941L93.5344 4.16035L94.0235 3.45395L89.8937 14.213C89.4953 15.2092 89.2507 16.0243 89.1602 16.6583C89.0877 17.2922 89.133 17.3738 89.296 17.718C89.4771 18.0621 89.7579 18.3066 90.1383 18.4515C90.5367 18.5783 91.0077 18.6508 91.5511 18.6689V19.6197C90.9533 19.5835 90.1383 19.4105 89.9095 19.3572C89.6808 19.3038 89.031 19.1535 88.4695 19.1535C88.0711 19.1535 87.3013 19.3088 87.1111 19.3572C86.9209 19.4056 86.3889 19.5835 86.1172 19.6197V18.6689C86.4976 18.5964 86.887 18.3519 87.2855 17.9353C87.684 17.5187 88.0734 17.2198 88.4538 16.2236L94.6484 0.329468C94.9382 0.34758 95.2461 0.356637 95.5721 0.356637C95.9163 0.356637 96.2333 0.34758 96.5231 0.329468ZM98.4249 11.7949V12.3383H90.3284L90.6001 11.7949H98.4249Z" fill="#CAD1E0"/>
<path d="M75.6067 19.613V18.6622C76.1863 18.6259 76.6211 18.5535 76.9109 18.4448C77.2007 18.3361 77.3909 18.1188 77.4814 17.7927C77.5901 17.4667 77.6444 17.3851 77.6444 16.733V3.25703C77.6444 2.58685 77.5901 2.0978 77.4814 1.78988C77.3909 1.46385 77.1916 1.2465 76.8837 1.13782C76.5939 1.01103 76.1682 0.938575 75.6067 0.920462V0.377075C76.0958 0.395188 76.7297 0.413301 77.5086 0.431413C78.3056 0.449526 79.0935 0.866026 79.8723 0.866026C80.7055 0.866026 81.4844 0.449526 82.2089 0.431413C82.9515 0.413301 83.5493 0.395188 84.0021 0.377075V0.920462C83.4225 0.938575 82.9787 1.01103 82.6708 1.13782C82.381 1.2465 82.1908 1.46385 82.1002 1.78988C82.0097 2.0978 81.9644 2.58685 81.9644 3.25703V16.733C81.9644 17.3851 82.0097 17.4667 82.1002 17.7927C82.2089 18.1188 82.4081 18.3361 82.6979 18.4448C82.9878 18.5535 83.4225 18.6259 84.0021 18.6622V19.613C83.5493 19.5768 82.9515 19.5587 82.2089 19.5587C81.4844 19.5405 80.7055 19.124 79.8723 19.124C79.0935 19.124 78.3056 19.5405 77.5086 19.5587C76.7297 19.5587 76.0958 19.5768 75.6067 19.613ZM64.0869 19.613V18.6622C64.6665 18.6259 65.1012 18.5535 65.391 18.4448C65.6809 18.3361 65.871 18.1188 65.9616 17.7927C66.0703 17.4667 66.1246 17.3851 66.1246 16.733V3.25703C66.1246 2.58685 66.0703 2.50525 65.9616 2.19733C65.871 1.87129 65.6718 1.65394 65.3639 1.54526C65.0741 1.41847 64.6484 1.34602 64.0869 1.32791V0.377075C64.5579 0.395188 65.1646 0.413301 65.9073 0.431413C66.668 0.449526 67.4921 0.866026 68.3797 0.866026C69.1404 0.866026 69.8921 0.449526 70.6347 0.431413C71.3774 0.413301 71.9932 0.395188 72.4823 0.377075V1.32791C71.9026 1.34602 71.4589 1.41847 71.151 1.54526C70.8611 1.65394 70.671 1.87129 70.5804 2.19733C70.4898 2.50525 70.4445 2.58685 70.4445 3.25703V16.733C70.4445 17.3851 70.4898 17.4667 70.5804 17.7927C70.6891 18.1188 70.8883 18.3361 71.1781 18.4448C71.4679 18.5535 71.9026 18.6259 72.4823 18.6622V19.613C71.9932 19.5768 71.3774 19.5587 70.6347 19.5587C69.8921 19.5405 69.1404 19.124 68.3797 19.124C67.4921 19.124 66.668 19.5405 65.9073 19.5587C65.1646 19.5587 64.5579 19.5768 64.0869 19.613ZM68.6785 10.2124V9.669H79.4105V10.2124H68.6785Z" fill="#CAD1E0"/>
<path d="M60.7259 0.383669V1.3345C60.11 1.35261 59.6391 1.42506 59.3131 1.55186C59.0051 1.66053 58.7969 1.87789 58.6882 2.20392C58.5795 2.51184 58.5252 2.59344 58.5252 3.26362V16.7396C58.5252 17.3917 58.5795 17.4733 58.6882 17.7993C58.7969 18.1254 59.0051 18.3427 59.3131 18.4514C59.6391 18.5601 60.11 18.6325 60.7259 18.6688V19.6196C60.2368 19.5834 58.9223 19.6017 58.3182 19.4295C57.714 19.2574 56.9769 18.9496 56.2809 18.9496C55.5849 18.9496 54.9925 19.2574 54.2052 19.4295C53.4179 19.6017 52.3124 19.5834 51.7872 19.6196V18.6688C52.4573 18.6325 52.9645 18.5601 53.3086 18.4514C53.6709 18.3427 53.9064 18.1254 54.015 17.7993C54.1418 17.4733 54.2052 17.3917 54.2052 16.7396V3.26362C54.2052 2.59344 54.1418 2.09534 54.015 1.76931C53.9064 1.44327 53.7071 1.22592 53.4173 1.11724C53.1456 0.990452 52.7834 0.927056 52.3305 0.927056H52.1404C51.7056 0.927056 51.3524 0.990452 51.0807 1.11724C50.8272 1.22592 50.637 1.45233 50.5102 1.79648C50.4015 2.12251 50.32 2.61156 50.2657 3.26362C50.1751 4.33228 50.0845 5.48246 49.994 6.71413C49.9215 7.94581 49.8219 9.18655 49.6951 10.4363C49.5683 11.6861 49.3872 12.8816 49.1517 14.0227C48.9344 15.1638 48.6355 16.1872 48.2551 17.0928C47.8748 17.9804 47.3857 18.6868 46.788 19.212C46.1903 19.7373 45.4567 20 44.5873 20C43.7722 20 43.0658 19.7736 42.4681 19.3207C41.8884 18.8498 41.5986 18.234 41.5986 17.4732C41.5986 16.7668 41.8341 16.2053 42.305 15.7887C42.7941 15.3721 43.3828 15.1638 44.071 15.1638C44.6688 15.1638 45.1488 15.3178 45.511 15.6257C45.8914 15.9155 46.0816 16.323 46.0816 16.8483C46.0816 17.4823 45.8733 18.0166 45.4567 18.4513C45.0582 18.8679 44.542 19.1668 43.908 19.3479C43.9986 19.4022 44.0982 19.4385 44.2069 19.4566C44.3337 19.4747 44.4605 19.4837 44.5873 19.4837C45.4205 19.4837 46.1178 19.1668 46.6793 18.5328C47.2408 17.8989 47.6936 17.0385 48.0378 15.9517C48.4 14.8468 48.6808 13.597 48.88 12.2023C49.0793 10.8077 49.2332 9.34956 49.3419 7.82808C49.4506 6.28848 49.5502 4.76699 49.6408 3.26362C49.6951 2.62967 49.6679 2.55712 49.5593 2.23109C49.4687 1.90506 49.2513 1.67865 48.9072 1.55186C48.5812 1.42506 48.0921 1.35261 47.44 1.3345V0.383669C47.8204 0.401782 48.2732 0.419895 48.7985 0.438007C49.3238 0.45612 49.7346 0.614448 50.1693 0.614448C50.4454 0.614448 50.5344 0.587316 51.1879 0.410875C51.8414 0.234435 52.2155 0.207153 52.6139 0.207153C53.3022 0.207153 53.6326 0.206856 54.4474 0.410726C55.2623 0.614595 55.7058 0.81817 56.4847 0.81817C56.9375 0.81817 57.5855 0.703779 57.9518 0.614448C58.3182 0.525117 59.0323 0.438007 59.5033 0.438007C59.9923 0.419895 60.3998 0.401782 60.7259 0.383669Z" fill="#CAD1E0"/>
<path d="M29.9109 0C31.8309 0 33.5063 0.389428 34.9373 1.16828C36.3863 1.94714 37.5093 3.07014 38.3063 4.53729C39.1032 5.98632 39.5017 7.75233 39.5017 9.83532C39.5017 11.864 39.0942 13.639 38.2791 15.1605C37.464 16.682 36.3229 17.8684 34.8558 18.7197C33.4067 19.571 31.7494 19.9967 29.8838 19.9967C27.9638 19.9967 26.2793 19.6072 24.8303 18.8284C23.3993 18.0495 22.2854 16.9265 21.4884 15.4594C20.6915 13.9922 20.293 12.2262 20.293 10.1613C20.293 8.1327 20.7005 6.35763 21.5156 4.83615C22.3488 3.31466 23.4808 2.12827 24.9118 1.27696C26.3608 0.425654 28.0272 0 29.9109 0ZM29.8023 0.489049C28.7879 0.489049 27.9004 0.896589 27.1397 1.71167C26.397 2.52675 25.8174 3.64975 25.4008 5.08067C25.0023 6.51159 24.8031 8.16893 24.8031 10.0527C24.8031 11.9726 25.0295 13.6481 25.4823 15.079C25.9533 16.4918 26.5782 17.5876 27.357 18.3665C28.154 19.1272 29.0325 19.5076 29.9924 19.5076C31.0068 19.5076 31.8852 19.1001 32.6279 18.285C33.3886 17.4699 33.9682 16.3469 34.3667 14.916C34.7833 13.467 34.9916 11.8096 34.9916 9.94399C34.9916 8.00591 34.7561 6.33047 34.2852 4.91766C33.8324 3.50485 33.2075 2.41808 32.4105 1.65733C31.6317 0.878477 30.7622 0.489049 29.8023 0.489049Z" fill="#CAD1E0"/>
<path d="M0.162109 0.377075C0.633045 0.395188 1.24888 0.413301 2.00963 0.431413C2.77037 0.449526 2.90599 0.811576 4.33205 0.811576C5.7581 0.811576 6.00353 0.449526 6.81861 0.431413C7.63369 0.413301 8.2133 0.404245 8.55745 0.404245C10.8035 0.404245 12.4789 0.802729 13.5838 1.5997C14.7068 2.39667 15.2683 3.42005 15.2683 4.66984C15.2683 5.30379 15.0781 5.9468 14.6977 6.59886C14.3174 7.25093 13.7287 7.83054 12.9317 8.3377C12.1348 8.84486 11.1023 9.21618 9.83441 9.45165V9.50599C11.537 9.63278 12.8864 9.9407 13.8826 10.4297C14.8789 10.9188 15.5943 11.5075 16.029 12.1958C16.4637 12.884 16.6811 13.5995 16.6811 14.3421C16.6811 15.4832 16.3822 16.4432 15.7845 17.2221C15.1868 18.0009 14.3264 18.5987 13.2034 19.0153C12.0804 19.4138 10.7401 19.613 9.18235 19.613C8.74763 19.613 8.12274 19.6039 7.30766 19.5858C6.49258 19.5496 5.49127 19.1466 4.33205 19.1466C2.90599 19.1466 2.77037 19.5405 2.00963 19.5587C1.18945 19.613 0.71458 19.613 0.162109 19.613V18.6622C0.741723 18.6259 1.17643 18.5535 1.46624 18.4448C1.75605 18.3361 1.94623 18.1188 2.0368 17.7927C2.14547 17.4667 2.19981 17.3851 2.19981 16.733V3.25703C2.19981 2.58685 2.19978 2.40072 2.0911 2.0928C2.00054 1.76676 1.74699 1.65394 1.43907 1.54526C1.14926 1.41847 0.72361 1.34602 0.162109 1.32791V0.377075ZM8.20425 0.920462C7.49784 0.920462 7.03596 1.07442 6.81861 1.38234C6.61937 1.69026 6.51975 2.31516 6.51975 3.25703V16.733C6.51975 17.367 6.56503 17.847 6.65559 18.173C6.76427 18.4991 6.9454 18.7164 7.19898 18.8251C7.47067 18.9338 7.86916 18.9881 8.39443 18.9881C9.69856 18.9881 10.6495 18.5806 11.2472 17.7655C11.8631 16.9323 12.171 15.7549 12.171 14.2335C12.171 12.8388 11.8178 11.761 11.1114 11.0003C10.4231 10.2396 9.27291 9.85919 7.66086 9.85919H5.35146C5.35146 9.85919 5.35146 9.78674 5.35146 9.64183C5.35146 9.47882 5.35146 9.39731 5.35146 9.39731H7.68803C8.53934 9.39731 9.1914 9.19807 9.64423 8.79958C10.097 8.38299 10.414 7.8396 10.5952 7.16942C10.7763 6.48113 10.8668 5.74755 10.8668 4.9687C10.8668 3.62834 10.6585 2.62308 10.242 1.9529C9.82535 1.26461 9.14612 0.920462 8.20425 0.920462Z" fill="#CAD1E0"/>
</g>
<defs>
<clipPath id="clip0_19_47">
<rect width="104.675" height="20" fill="white" transform="translate(0.162109)"/>
</clipPath>
</defs>
</svg>
