<svg width="304" height="120" viewBox="0 0 304 120" fill="none" xmlns="http://www.w3.org/2000/svg">
<g clip-path="url(#clip0_407_631)">
<path d="M278.832 0.944824L297.919 50.117C298.652 52.0022 299.464 52.1334 300.354 52.8665C301.297 53.5473 302.135 53.9138 302.868 53.9662V56.7152C300.652 56.7152 299.133 55.9561 297.526 55.8776C295.92 55.799 293.623 55.3671 291.476 55.3671C289.067 55.3671 286.764 55.3671 284.33 55.8776C281.896 56.388 280.246 56.6104 278.989 56.7152V53.9662C281.659 53.8615 283.335 53.4164 284.016 52.6309C284.749 51.793 284.592 51.2167 283.545 48.546L270.191 12.0203L271.605 9.97805L259.666 41.0838C258.513 43.9639 257.806 46.3204 257.545 48.1532C257.335 49.9861 257.466 50.222 257.937 51.217C258.461 52.2119 259.273 52.9189 260.372 53.3378C261.525 53.7044 262.886 53.9138 264.457 53.9662V56.7152C262.729 56.6104 260.372 56.1104 259.711 55.9561C259.05 55.8019 257.171 55.3671 255.548 55.3671C254.396 55.3671 252.17 55.8162 251.621 55.9561C251.071 56.0961 249.533 56.6104 248.747 56.7152V53.9662C249.847 53.7567 250.973 53.0498 252.125 51.8454C253.277 50.6409 254.403 49.7766 255.502 46.8964L273.412 0.944824C274.25 0.99719 275.14 1.02337 276.082 1.02337C277.077 1.02337 277.994 0.99719 278.832 0.944824ZM284.33 34.0928V35.6638H260.922L261.708 34.0928H284.33Z" fill="white"/>
<path d="M218.362 56.7094V53.9605C220.037 53.8557 221.294 53.6463 222.132 53.3321C222.97 53.0179 223.52 52.3895 223.782 51.4469C224.096 50.5043 224.253 50.2683 224.253 48.3832V9.42246C224.253 7.4849 224.096 6.07101 223.782 5.18078C223.52 4.23818 222.944 3.60978 222.054 3.29559C221.216 2.92902 219.985 2.71955 218.362 2.66719V1.09619C219.776 1.14856 221.608 1.20092 223.86 1.25329C226.164 1.30566 228.442 2.5098 230.694 2.5098C233.103 2.5098 235.355 1.30566 237.449 1.25329C239.596 1.20092 241.324 1.14856 242.634 1.09619V2.66719C240.958 2.71955 239.675 2.92902 238.785 3.29559C237.947 3.60978 237.397 4.23818 237.135 5.18078C236.873 6.07101 236.742 7.4849 236.742 9.42246V48.3832C236.742 50.2683 236.873 50.5043 237.135 51.4469C237.449 52.3895 238.025 53.0179 238.863 53.3321C239.701 53.6463 240.958 53.8557 242.634 53.9605V56.7094C241.324 56.6047 239.596 56.5523 237.449 56.5523C235.355 56.5 233.103 55.2958 230.694 55.2958C228.442 55.2958 226.164 56.5 223.86 56.5523C221.608 56.5523 219.776 56.6047 218.362 56.7094ZM185.057 56.7094V53.9605C186.732 53.8557 187.989 53.6463 188.827 53.3321C189.665 53.0179 190.215 52.3895 190.477 51.4469C190.791 50.5043 190.948 50.2683 190.948 48.3832V9.42246C190.948 7.4849 190.791 7.24897 190.477 6.35875C190.215 5.41615 189.639 4.78775 188.748 4.47355C187.911 4.10699 186.68 3.89752 185.057 3.84515V1.09619C186.418 1.14856 188.172 1.20092 190.319 1.25329C192.519 1.30566 194.902 2.5098 197.468 2.5098C199.667 2.5098 201.84 1.30566 203.987 1.25329C206.134 1.20092 207.915 1.14856 209.329 1.09619V3.84515C207.653 3.89752 206.37 4.10699 205.48 4.47355C204.642 4.78775 204.092 5.41615 203.83 6.35875C203.568 7.24897 203.437 7.4849 203.437 9.42246V48.3832C203.437 50.2683 203.568 50.5043 203.83 51.4469C204.144 52.3895 204.72 53.0179 205.558 53.3321C206.396 53.6463 207.653 53.8557 209.329 53.9605V56.7094C207.915 56.6047 206.134 56.5523 203.987 56.5523C201.84 56.5 199.667 55.2958 197.468 55.2958C194.902 55.2958 192.519 56.5 190.319 56.5523C188.172 56.5523 186.418 56.6047 185.057 56.7094ZM198.332 29.5312V27.9602H229.359V29.5312H198.332Z" fill="white"/>
<path d="M175.339 1.09797V3.84694C173.559 3.8993 172.197 4.10877 171.254 4.47533C170.364 4.78953 169.762 5.41793 169.448 6.36053C169.134 7.25076 168.977 7.48669 168.977 9.42425V48.3849C168.977 50.2701 169.134 50.5061 169.448 51.4487C169.762 52.3913 170.364 53.0197 171.254 53.3339C172.197 53.6481 173.559 53.8575 175.339 53.9623V56.7112C173.925 56.6065 170.125 56.6594 168.378 56.1617C166.632 55.664 164.501 54.7741 162.488 54.7741C160.476 54.7741 158.763 55.664 156.487 56.1617C154.211 56.6594 151.015 56.6065 149.496 56.7112V53.9623C151.434 53.8575 152.9 53.6481 153.895 53.3339C154.942 53.0197 155.623 52.3913 155.937 51.4487C156.304 50.5061 156.487 50.2701 156.487 48.3849V9.42425C156.487 7.48669 156.304 6.04661 155.937 5.10401C155.623 4.16142 155.047 3.53302 154.209 3.21882C153.424 2.85225 152.376 2.66897 151.067 2.66897H150.517C149.261 2.66897 148.239 2.85225 147.454 3.21882C146.721 3.53302 146.171 4.1876 145.804 5.18256C145.49 6.12516 145.255 7.53905 145.097 9.42425C144.836 12.5139 144.574 15.8391 144.312 19.4001C144.102 22.961 143.814 26.5481 143.448 30.1614C143.081 33.7747 142.558 37.2309 141.877 40.53C141.248 43.8291 140.384 46.7878 139.285 49.4061C138.185 51.972 136.771 54.0143 135.043 55.533C133.315 57.0516 131.194 57.8109 128.681 57.8109C126.324 57.8109 124.282 57.1563 122.554 55.8472C120.878 54.4856 120.04 52.7052 120.04 50.5058C120.04 48.4635 120.721 46.8401 122.082 45.6357C123.496 44.4313 125.198 43.8291 127.188 43.8291C128.916 43.8291 130.304 44.2742 131.351 45.1644C132.451 46.0023 133.001 47.1805 133.001 48.6991C133.001 50.532 132.399 52.0768 131.194 53.3336C130.042 54.538 128.55 55.4021 126.717 55.9257C126.979 56.0828 127.267 56.1876 127.581 56.2399C127.947 56.2923 128.314 56.3185 128.681 56.3185C131.089 56.3185 133.105 55.4021 134.729 53.5692C136.352 51.7364 137.661 49.249 138.656 46.107C139.704 42.9126 140.515 39.2994 141.091 35.2671C141.667 31.2349 142.113 27.0194 142.427 22.6206C142.741 18.1695 143.029 13.7707 143.291 9.42425C143.448 7.59142 143.369 7.38168 143.055 6.43908C142.793 5.49648 142.165 4.8419 141.17 4.47533C140.227 4.10877 138.813 3.8993 136.928 3.84694V1.09797C138.028 1.15034 139.337 1.20271 140.856 1.25507C142.374 1.30744 143.562 1.76518 144.819 1.76518C145.617 1.76518 145.874 1.68674 147.764 1.17663C149.653 0.66652 150.735 0.587646 151.887 0.587646C153.876 0.587646 154.831 0.586788 157.187 1.1762C159.543 1.76561 160.826 2.35417 163.077 2.35417C164.386 2.35417 166.26 2.02345 167.319 1.76518C168.378 1.50691 170.443 1.25507 171.804 1.25507C173.218 1.20271 174.396 1.15034 175.339 1.09797Z" fill="white"/>
<path d="M86.2505 0C91.8013 0 96.6452 1.12588 100.782 3.37764C104.972 5.6294 108.218 8.87613 110.522 13.1178C112.826 17.3071 113.979 22.4129 113.979 28.435C113.979 34.3001 112.8 39.432 110.444 43.8308C108.087 48.2296 104.788 51.6596 100.547 54.1208C96.3572 56.582 91.5657 57.8126 86.1719 57.8126C80.6211 57.8126 75.751 56.6868 71.5617 54.435C67.4247 52.1832 64.2042 48.9365 61.9 44.6948C59.5959 40.4531 58.4438 35.3474 58.4438 29.3776C58.4438 23.5126 59.6221 18.3806 61.9786 13.9819C64.3874 9.58307 67.6604 6.15307 71.7973 3.69184C75.9866 1.23061 80.8043 0 86.2505 0ZM85.9363 1.4139C83.0037 1.4139 80.4378 2.59214 78.2384 4.94864C76.0914 7.30513 74.4156 10.5519 73.2112 14.6888C72.0591 18.8258 71.4831 23.6173 71.4831 29.0634C71.4831 34.6143 72.1377 39.4582 73.4469 43.5951C74.8084 47.6797 76.615 50.8479 78.8668 53.0997C81.1709 55.299 83.7107 56.3987 86.4861 56.3987C89.4186 56.3987 91.9584 55.2205 94.1054 52.864C96.3048 50.5075 97.9806 47.2608 99.1326 43.1238C100.337 38.9345 100.939 34.143 100.939 28.7492C100.939 23.146 100.259 18.3021 98.897 14.2175C97.5878 10.1329 95.7812 6.99093 93.477 4.79154C91.2253 2.53978 88.7117 1.4139 85.9363 1.4139Z" fill="white"/>
<path d="M0.243652 1.09619C1.60518 1.14856 3.38564 1.20092 5.58504 1.25329C7.78443 1.30566 8.17653 2.35238 12.2994 2.35238C16.4223 2.35238 17.1319 1.30566 19.4883 1.25329C21.8448 1.20092 23.5206 1.17474 24.5155 1.17474C31.009 1.17474 35.8529 2.3268 39.0472 4.63093C42.294 6.93506 43.9173 9.89376 43.9173 13.5071C43.9173 15.3399 43.3675 17.1989 42.2678 19.0841C41.1681 20.9693 39.4662 22.645 37.1621 24.1113C34.8579 25.5775 31.873 26.651 28.2074 27.3318V27.4889C33.1298 27.8555 37.0311 28.7457 39.9113 30.1596C42.7915 31.5735 44.8599 33.2754 46.1167 35.2653C47.3735 37.2553 48.0019 39.3237 48.0019 41.4708C48.0019 44.7699 47.1379 47.5453 45.4098 49.7971C43.6817 52.0488 41.1943 53.7769 37.9475 54.9813C34.7008 56.1334 30.8257 56.7094 26.3222 56.7094C25.0654 56.7094 23.2587 56.6832 20.9022 56.6309C18.5458 56.5261 15.6509 55.3609 12.2994 55.3609C8.17653 55.3609 7.78443 56.5 5.58504 56.5523C3.21381 56.7094 1.84091 56.7094 0.243652 56.7094V53.9605C1.91938 53.8557 3.17618 53.6463 4.01404 53.3321C4.85191 53.0179 5.40175 52.3895 5.66359 51.4469C5.97779 50.5043 6.13489 50.2683 6.13489 48.3832V9.42246C6.13489 7.4849 6.13479 6.94677 5.82059 6.05654C5.55876 5.11394 4.82572 4.78775 3.93549 4.47355C3.09763 4.10699 1.86701 3.89752 0.243652 3.84515V1.09619ZM23.4944 2.66719C21.4521 2.66719 20.1167 3.1123 19.4883 4.00253C18.9123 4.89276 18.6243 6.69941 18.6243 9.42246V48.3832C18.6243 50.216 18.7552 51.6037 19.017 52.5463C19.3312 53.4889 19.8549 54.1173 20.588 54.4315C21.3735 54.7457 22.5256 54.9028 24.0442 54.9028C27.8146 54.9028 30.5639 53.7245 32.292 51.368C34.0724 48.9592 34.9627 45.5554 34.9627 41.1566C34.9627 37.1244 33.9415 34.0085 31.8992 31.8092C29.9093 29.6098 26.584 28.5101 21.9234 28.5101H15.2467C15.2467 28.5101 15.2467 28.3006 15.2467 27.8817C15.2467 27.4104 15.2467 27.1747 15.2467 27.1747H22.0019C24.4632 27.1747 26.3484 26.5987 27.6575 25.4466C28.9667 24.2422 29.8831 22.6712 30.4068 20.7336C30.9304 18.7437 31.1923 16.6229 31.1923 14.3711C31.1923 10.496 30.5901 7.58964 29.3856 5.65208C28.1812 3.66215 26.2174 2.66719 23.4944 2.66719Z" fill="white"/>
</g>
<path d="M1.63965 87.223V73.26H9.41902V87.223H7.62378V74.6563H3.43489V87.223H1.63965Z" fill="#A2ACBE"/>
<path d="M12.2171 87.223V73.4595C12.7224 73.3132 13.2277 73.2135 13.7331 73.1603C14.2517 73.0938 14.8102 73.0605 15.4086 73.0605C16.4725 73.0605 17.3235 73.2135 17.9618 73.5193C18.6134 73.8252 19.0789 74.3438 19.3581 75.0752C19.6507 75.7933 19.797 76.784 19.797 78.0473C19.797 79.3372 19.6573 80.3545 19.3781 81.0992C19.1121 81.8439 18.6999 82.3692 18.1414 82.6751C17.5828 82.9809 16.8714 83.1338 16.007 83.1338C15.7145 83.1338 15.3687 83.1139 14.9698 83.074C14.5841 83.0341 14.265 82.9876 14.0123 82.9344V87.223H12.2171ZM14.0123 81.7375H15.4086C16.007 81.7375 16.4991 81.6312 16.8847 81.4184C17.2703 81.2056 17.5496 80.8333 17.7225 80.3013C17.9086 79.7561 18.0017 79.0048 18.0017 78.0473C18.0017 77.0766 17.9086 76.3252 17.7225 75.7933C17.5496 75.2614 17.2703 74.889 16.8847 74.6763C16.4991 74.4635 16.007 74.3571 15.4086 74.3571H14.0123V81.7375Z" fill="#A2ACBE"/>
<path d="M25.8855 87.4225C24.9945 87.4225 24.2233 87.2163 23.5717 86.8041C22.9333 86.3786 22.4413 85.6472 22.0956 84.6099C21.7631 83.5594 21.5969 82.1032 21.5969 80.2415C21.5969 78.3798 21.7631 76.9303 22.0956 75.893C22.4413 74.8425 22.9333 74.1111 23.5717 73.6989C24.2233 73.2733 24.9945 73.0605 25.8855 73.0605C26.7898 73.0605 27.5611 73.2733 28.1994 73.6989C28.8377 74.1111 29.3231 74.8425 29.6555 75.893C30.0013 76.9303 30.1741 78.3798 30.1741 80.2415C30.1741 82.1032 30.0013 83.5594 29.6555 84.6099C29.3231 85.6472 28.8377 86.3786 28.1994 86.8041C27.5611 87.2163 26.7898 87.4225 25.8855 87.4225ZM25.8855 86.2256C26.2047 86.2256 26.5105 86.1392 26.8031 85.9663C27.1089 85.7802 27.3816 85.4676 27.6209 85.0288C27.8603 84.59 28.0465 83.9849 28.1794 83.2136C28.3124 82.429 28.3789 81.4383 28.3789 80.2415C28.3789 79.0447 28.3124 78.0606 28.1794 77.2893C28.0465 76.5047 27.8603 75.893 27.6209 75.4542C27.3816 75.0154 27.1089 74.7095 26.8031 74.5366C26.5105 74.3505 26.2047 74.2574 25.8855 74.2574C25.5664 74.2574 25.2539 74.3505 24.948 74.5366C24.6554 74.7095 24.3895 75.0154 24.1501 75.4542C23.9108 75.893 23.7246 76.5047 23.5916 77.2893C23.4586 78.0606 23.3921 79.0447 23.3921 80.2415C23.3921 81.4383 23.4586 82.429 23.5916 83.2136C23.7246 83.9849 23.9108 84.59 24.1501 85.0288C24.3895 85.4676 24.6554 85.7802 24.948 85.9663C25.2539 86.1392 25.5664 86.2256 25.8855 86.2256Z" fill="#A2ACBE"/>
<path d="M32.5733 87.223V73.26H34.3685V83.6325H34.4682L38.4576 73.26H40.5521V87.223H38.7569V76.8505H38.6571L34.568 87.223H32.5733Z" fill="#A2ACBE"/>
<path d="M45.041 87.4225C44.5489 87.4225 44.037 87.3759 43.505 87.2828C42.9731 87.203 42.5542 87.1166 42.2484 87.0235V86.1259H45.041C46.0383 86.1259 46.7498 85.9131 47.1753 85.4876C47.6142 85.0621 47.8336 84.3772 47.8336 83.433C47.8336 82.4357 47.6142 81.7242 47.1753 81.2987C46.7498 80.8599 46.0383 80.6404 45.041 80.6404H43.6447V79.2442H44.8415C45.7458 79.2442 46.404 79.0447 46.8163 78.6457C47.2285 78.2335 47.4346 77.6018 47.4346 76.7508C47.4346 75.9529 47.2285 75.3545 46.8163 74.9555C46.404 74.5566 45.7458 74.3571 44.8415 74.3571H42.4478V73.4595C42.7537 73.3531 43.1593 73.26 43.6646 73.1802C44.1832 73.1004 44.642 73.0605 45.041 73.0605C46.5437 73.0605 47.6142 73.3664 48.2525 73.9781C48.9041 74.5765 49.2299 75.5007 49.2299 76.7508C49.2299 77.5486 49.0769 78.187 48.7711 78.6657C48.4785 79.1444 48.033 79.5234 47.4346 79.8027V79.8825C48.2325 80.1085 48.7977 80.5474 49.1301 81.199C49.4626 81.8373 49.6288 82.582 49.6288 83.433C49.6288 84.8293 49.2897 85.8466 48.6115 86.485C47.9333 87.11 46.7431 87.4225 45.041 87.4225Z" fill="#A2ACBE"/>
<path d="M55.0106 87.4225C54.4122 87.4225 53.8537 87.3892 53.3351 87.3227C52.8298 87.2695 52.3244 87.1698 51.8191 87.0235V73.4595C52.3244 73.3132 52.8298 73.2135 53.3351 73.1603C53.8537 73.0938 54.4122 73.0605 55.0106 73.0605C56.4069 73.0605 57.4176 73.3664 58.0426 73.9781C58.6809 74.5765 59.0001 75.5007 59.0001 76.7508C59.0001 77.3492 58.8804 77.9077 58.641 78.4263C58.4149 78.9449 58.0027 79.3705 57.4043 79.7029V79.7827C58.2022 80.0088 58.7673 80.4476 59.0998 81.0992C59.4322 81.7508 59.5985 82.5288 59.5985 83.433C59.5985 84.8293 59.2594 85.8466 58.5812 86.485C57.903 87.11 56.7128 87.4225 55.0106 87.4225ZM53.6143 86.1259H55.0106C56.008 86.1259 56.7194 85.9198 57.145 85.5075C57.5838 85.082 57.8032 84.3905 57.8032 83.433C57.8032 82.3825 57.5838 81.6378 57.145 81.199C56.7194 80.7601 56.008 80.5407 55.0106 80.5407H53.6143V86.1259ZM53.6143 79.2442H54.8112C55.609 79.2442 56.2075 79.0447 56.6064 78.6457C57.0053 78.2335 57.2048 77.6018 57.2048 76.7508C57.2048 75.9529 57.0053 75.3545 56.6064 74.9555C56.2075 74.5566 55.609 74.3571 54.8112 74.3571H53.6143V79.2442Z" fill="#A2ACBE"/>
<path d="M65.6823 87.4225C64.7914 87.4225 64.0201 87.2163 63.3685 86.8041C62.7302 86.3786 62.2381 85.6472 61.8924 84.6099C61.5599 83.5594 61.3937 82.1032 61.3937 80.2415C61.3937 78.3798 61.5599 76.9303 61.8924 75.893C62.2381 74.8425 62.7302 74.1111 63.3685 73.6989C64.0201 73.2733 64.7914 73.0605 65.6823 73.0605C66.5866 73.0605 67.3579 73.2733 67.9962 73.6989C68.6345 74.1111 69.1199 74.8425 69.4523 75.893C69.7981 76.9303 69.971 78.3798 69.971 80.2415C69.971 82.1032 69.7981 83.5594 69.4523 84.6099C69.1199 85.6472 68.6345 86.3786 67.9962 86.8041C67.3579 87.2163 66.5866 87.4225 65.6823 87.4225ZM65.6823 86.2256C66.0015 86.2256 66.3073 86.1392 66.5999 85.9663C66.9058 85.7802 67.1784 85.4676 67.4177 85.0288C67.6571 84.59 67.8433 83.9849 67.9762 83.2136C68.1092 82.429 68.1757 81.4383 68.1757 80.2415C68.1757 79.0447 68.1092 78.0606 67.9762 77.2893C67.8433 76.5047 67.6571 75.893 67.4177 75.4542C67.1784 75.0154 66.9058 74.7095 66.5999 74.5366C66.3073 74.3505 66.0015 74.2574 65.6823 74.2574C65.3632 74.2574 65.0507 74.3505 64.7448 74.5366C64.4523 74.7095 64.1863 75.0154 63.9469 75.4542C63.7076 75.893 63.5214 76.5047 63.3884 77.2893C63.2554 78.0606 63.1889 79.0447 63.1889 80.2415C63.1889 81.4383 63.2554 82.429 63.3884 83.2136C63.5214 83.9849 63.7076 84.59 63.9469 85.0288C64.1863 85.4676 64.4523 85.7802 64.7448 85.9663C65.0507 86.1392 65.3632 86.2256 65.6823 86.2256Z" fill="#A2ACBE"/>
<path d="M70.9785 90.2151V85.8267H71.9758C71.9758 85.8267 72.049 85.6738 72.1952 85.3679C72.3548 85.0621 72.5144 84.6033 72.674 83.9916C72.8335 83.3799 72.9333 82.6285 72.9732 81.7375L73.3721 73.26H79.8549V85.8267H81.1515V90.2151H80.0544C79.9081 89.8161 79.7818 89.364 79.6754 88.8587C79.5823 88.3666 79.5092 87.8214 79.456 87.223H72.674C72.6208 87.8214 72.541 88.3666 72.4346 88.8587C72.3415 89.364 72.2218 89.8161 72.0755 90.2151H70.9785ZM73.771 85.8267H78.0597V74.6563H75.1075L74.7684 81.7375C74.7285 82.6285 74.6221 83.3799 74.4492 83.9916C74.2897 84.6033 74.1367 85.0621 73.9905 85.3679C73.8442 85.6738 73.771 85.8267 73.771 85.8267Z" fill="#A2ACBE"/>
<path d="M86.8395 87.4225C85.9087 87.4225 85.1174 87.2163 84.4658 86.8041C83.8142 86.3786 83.3155 85.6472 82.9698 84.6099C82.624 83.5594 82.4512 82.1032 82.4512 80.2415C82.4512 78.3798 82.6174 76.9303 82.9498 75.893C83.2956 74.8425 83.781 74.1111 84.406 73.6989C85.031 73.2733 85.7757 73.0605 86.64 73.0605C87.2385 73.0605 87.8103 73.1004 88.3555 73.1802C88.914 73.26 89.3396 73.3531 89.6321 73.4595V74.3571H87.039C86.5071 74.3571 86.0283 74.5233 85.6028 74.8558C85.1906 75.1882 84.8581 75.78 84.6054 76.6311C84.3661 77.4689 84.2464 78.6723 84.2464 80.2415C84.2464 81.7974 84.3727 83.0009 84.6254 83.8519C84.8781 84.703 85.2238 85.2948 85.6626 85.6272C86.1148 85.9597 86.6401 86.1259 87.2385 86.1259H89.8316V87.0235C89.539 87.1166 89.1135 87.203 88.555 87.2828C88.0098 87.3759 87.4379 87.4225 86.8395 87.4225Z" fill="#A2ACBE"/>
<path d="M93.5132 87.223V74.6563H90.3217V73.26H98.5V74.6563H95.3085V87.223H93.5132Z" fill="#A2ACBE"/>
<path d="M103.281 87.4225C102.683 87.4225 102.124 87.3892 101.606 87.3227C101.1 87.2695 100.595 87.1698 100.09 87.0235V73.4595C100.595 73.3132 101.1 73.2135 101.606 73.1603C102.124 73.0938 102.683 73.0605 103.281 73.0605C104.677 73.0605 105.688 73.3664 106.313 73.9781C106.951 74.5765 107.271 75.5007 107.271 76.7508C107.271 77.3492 107.151 77.9077 106.911 78.4263C106.685 78.9449 106.273 79.3705 105.675 79.7029V79.7827C106.473 80.0088 107.038 80.4476 107.37 81.0992C107.703 81.7508 107.869 82.5288 107.869 83.433C107.869 84.8293 107.53 85.8466 106.852 86.485C106.173 87.11 104.983 87.4225 103.281 87.4225ZM101.885 86.1259H103.281C104.278 86.1259 104.99 85.9198 105.415 85.5075C105.854 85.082 106.074 84.3905 106.074 83.433C106.074 82.3825 105.854 81.6378 105.415 81.199C104.99 80.7601 104.278 80.5407 103.281 80.5407H101.885V86.1259ZM101.885 79.2442H103.082C103.879 79.2442 104.478 79.0447 104.877 78.6457C105.276 78.2335 105.475 77.6018 105.475 76.7508C105.475 75.9529 105.276 75.3545 104.877 74.9555C104.478 74.5566 103.879 74.3571 103.082 74.3571H101.885V79.2442Z" fill="#A2ACBE"/>
<path d="M113.953 87.4225C113.062 87.4225 112.291 87.2163 111.639 86.8041C111.001 86.3786 110.509 85.6472 110.163 84.6099C109.83 83.5594 109.664 82.1032 109.664 80.2415C109.664 78.3798 109.83 76.9303 110.163 75.893C110.509 74.8425 111.001 74.1111 111.639 73.6989C112.291 73.2733 113.062 73.0605 113.953 73.0605C114.857 73.0605 115.628 73.2733 116.267 73.6989C116.905 74.1111 117.39 74.8425 117.723 75.893C118.069 76.9303 118.241 78.3798 118.241 80.2415C118.241 82.1032 118.069 83.5594 117.723 84.6099C117.39 85.6472 116.905 86.3786 116.267 86.8041C115.628 87.2163 114.857 87.4225 113.953 87.4225ZM113.953 86.2256C114.272 86.2256 114.578 86.1392 114.87 85.9663C115.176 85.7802 115.449 85.4676 115.688 85.0288C115.928 84.59 116.114 83.9849 116.247 83.2136C116.38 82.429 116.446 81.4383 116.446 80.2415C116.446 79.0447 116.38 78.0606 116.247 77.2893C116.114 76.5047 115.928 75.893 115.688 75.4542C115.449 75.0154 115.176 74.7095 114.87 74.5366C114.578 74.3505 114.272 74.2574 113.953 74.2574C113.634 74.2574 113.321 74.3505 113.015 74.5366C112.723 74.7095 112.457 75.0154 112.217 75.4542C111.978 75.893 111.792 76.5047 111.659 77.2893C111.526 78.0606 111.459 79.0447 111.459 80.2415C111.459 81.4383 111.526 82.429 111.659 83.2136C111.792 83.9849 111.978 84.59 112.217 85.0288C112.457 85.4676 112.723 85.7802 113.015 85.9663C113.321 86.1392 113.634 86.2256 113.953 86.2256Z" fill="#A2ACBE"/>
<path d="M125.627 87.223V73.4595C126.133 73.3132 126.638 73.2135 127.143 73.1603C127.662 73.0938 128.22 73.0605 128.819 73.0605C129.883 73.0605 130.734 73.2135 131.372 73.5193C132.024 73.8252 132.489 74.3438 132.768 75.0752C133.061 75.7933 133.207 76.784 133.207 78.0473C133.207 79.3372 133.068 80.3545 132.788 81.0992C132.522 81.8439 132.11 82.3692 131.552 82.6751C130.993 82.9809 130.282 83.1338 129.417 83.1338C129.125 83.1338 128.779 83.1139 128.38 83.074C127.994 83.0341 127.675 82.9876 127.423 82.9344V87.223H125.627ZM127.423 81.7375H128.819C129.417 81.7375 129.909 81.6312 130.295 81.4184C130.681 81.2056 130.96 80.8333 131.133 80.3013C131.319 79.7561 131.412 79.0048 131.412 78.0473C131.412 77.0766 131.319 76.3252 131.133 75.7933C130.96 75.2614 130.681 74.889 130.295 74.6763C129.909 74.4635 129.417 74.3571 128.819 74.3571H127.423V81.7375Z" fill="#A2ACBE"/>
<path d="M138.598 87.4225C137.999 87.4225 137.441 87.3892 136.922 87.3227C136.417 87.2695 135.911 87.1698 135.406 87.0235V73.26H137.201V78.9449C137.454 78.8918 137.773 78.8452 138.159 78.8053C138.558 78.7654 138.903 78.7455 139.196 78.7455C140.446 78.7455 141.37 79.0779 141.969 79.7428C142.58 80.4077 142.886 81.5381 142.886 83.1338C142.886 84.6764 142.554 85.7802 141.889 86.4451C141.237 87.0967 140.14 87.4225 138.598 87.4225ZM137.201 86.1259H138.598C139.449 86.1259 140.074 85.8998 140.473 85.4477C140.885 84.9956 141.091 84.2243 141.091 83.1338C141.091 82.0301 140.885 81.2588 140.473 80.82C140.074 80.3678 139.449 80.1418 138.598 80.1418H137.201V86.1259ZM144.582 87.223V73.26H146.377V87.223H144.582Z" fill="#A2ACBE"/>
<path d="M152.37 87.4225C151.771 87.4225 151.213 87.3892 150.694 87.3227C150.189 87.2695 149.683 87.1698 149.178 87.0235V73.26H156.16V74.6563H150.973V78.7455H152.37C153.434 78.7455 154.285 78.8918 154.923 79.1843C155.575 79.4636 156.04 79.929 156.319 80.5806C156.612 81.2189 156.758 82.07 156.758 83.1338C156.758 84.6764 156.426 85.7802 155.761 86.4451C155.096 87.0967 153.965 87.4225 152.37 87.4225ZM150.973 86.1259H152.37C153.274 86.1259 153.932 85.8998 154.344 85.4477C154.757 84.9956 154.963 84.2243 154.963 83.1338C154.963 82.0301 154.757 81.2588 154.344 80.82C153.932 80.3678 153.274 80.1418 152.37 80.1418H150.973V86.1259Z" fill="#A2ACBE"/>
<path d="M158.957 87.223V73.26H160.752V79.4436H164.941V73.26H166.736V87.223H164.941V80.8399H160.752V87.223H158.957Z" fill="#A2ACBE"/>
<path d="M172.726 87.4225C172.127 87.4225 171.569 87.3892 171.05 87.3227C170.545 87.2695 170.04 87.1698 169.534 87.0235V73.26H171.33V78.9449C171.582 78.8918 171.901 78.8452 172.287 78.8053C172.686 78.7654 173.032 78.7455 173.324 78.7455C174.574 78.7455 175.499 79.0779 176.097 79.7428C176.709 80.4077 177.014 81.5381 177.014 83.1338C177.014 84.6764 176.682 85.7802 176.017 86.4451C175.366 87.0967 174.268 87.4225 172.726 87.4225ZM171.33 86.1259H172.726C173.577 86.1259 174.202 85.8998 174.601 85.4477C175.013 84.9956 175.219 84.2243 175.219 83.1338C175.219 82.0301 175.013 81.2588 174.601 80.82C174.202 80.3678 173.577 80.1418 172.726 80.1418H171.33V86.1259ZM178.71 87.223V73.26H180.505V87.223H178.71Z" fill="#A2ACBE"/>
<path d="M182.209 87.223L185.201 80.042L182.509 73.26H184.304L186.498 78.8452L188.692 73.26H190.487L187.794 80.042L190.787 87.223H188.991L186.498 81.2389L184.005 87.223H182.209Z" fill="#A2ACBE"/>
<path d="M196.271 90.2151V85.8267H197.269C197.269 85.8267 197.342 85.6738 197.488 85.3679C197.648 85.0621 197.807 84.6033 197.967 83.9916C198.126 83.3799 198.226 82.6285 198.266 81.7375L198.665 73.26H205.148V85.8267H206.444V90.2151H205.347C205.201 89.8161 205.075 89.364 204.968 88.8587C204.875 88.3666 204.802 87.8214 204.749 87.223H197.967C197.914 87.8214 197.834 88.3666 197.727 88.8587C197.634 89.364 197.515 89.8161 197.368 90.2151H196.271ZM199.064 85.8267H203.352V74.6563H200.4L200.061 81.7375C200.021 82.6285 199.915 83.3799 199.742 83.9916C199.582 84.6033 199.43 85.0621 199.283 85.3679C199.137 85.6738 199.064 85.8267 199.064 85.8267Z" fill="#A2ACBE"/>
<path d="M208.338 87.223V73.26H215.12V74.6563H210.133V79.2442H214.521V80.6404H210.133V85.8267H215.12V87.223H208.338Z" fill="#A2ACBE"/>
<path d="M217.118 87.4225C216.773 87.4225 216.487 87.3892 216.261 87.3227C216.035 87.2562 215.921 87.223 215.921 87.223V86.3254C216.467 86.3254 216.919 86.0927 217.278 85.6272C217.65 85.1485 217.863 84.2841 217.916 83.0341L218.415 73.26H225.097V87.223H223.302V74.6563H220.15L219.711 83.0341C219.658 84.0979 219.505 84.9557 219.253 85.6073C219.013 86.2456 218.707 86.711 218.335 87.0036C217.963 87.2828 217.557 87.4225 217.118 87.4225Z" fill="#A2ACBE"/>
<path d="M227.895 87.223V73.26H229.69V83.6325H229.79L233.78 73.26H235.874V87.223H234.079V76.8505H233.979L229.89 87.223H227.895Z" fill="#A2ACBE"/>
<path d="M245.848 87.4225C245.25 87.4225 244.751 87.223 244.352 86.8241C243.967 86.4251 243.701 85.8267 243.554 85.0288L243.056 82.4357C242.923 81.7309 242.683 81.2588 242.338 81.0194C242.005 80.7668 241.613 80.6404 241.161 80.6404H240.463V87.223H238.667V73.26H240.463V79.2442H241.161C241.507 79.2442 241.832 79.1178 242.138 78.8652C242.444 78.6125 242.683 78.1404 242.856 77.4489L243.355 75.4542C243.554 74.6563 243.847 74.0579 244.233 73.659C244.632 73.26 245.104 73.0605 245.649 73.0605C245.995 73.0605 246.281 73.0938 246.507 73.1603C246.733 73.2268 246.846 73.26 246.846 73.26V74.1576C246.354 74.1576 245.988 74.2773 245.749 74.5167C245.523 74.7428 245.356 75.0553 245.25 75.4542L244.751 77.4489C244.538 78.2734 244.299 78.8585 244.033 79.2043C243.767 79.5367 243.408 79.7694 242.956 79.9024V79.9822C243.461 80.1152 243.88 80.3479 244.213 80.6803C244.545 81.0128 244.791 81.5979 244.951 82.4357L245.449 85.0288C245.516 85.3746 245.675 85.6804 245.928 85.9464C246.181 86.199 246.553 86.3254 247.045 86.3254V87.223C247.045 87.223 246.932 87.2562 246.706 87.3227C246.48 87.3892 246.194 87.4225 245.848 87.4225Z" fill="#A2ACBE"/>
<path d="M247.546 87.223L250.937 73.26H253.53L256.921 87.223H255.126L254.228 83.6325H250.239L249.341 87.223H247.546ZM250.538 82.2362H253.929L252.274 75.2547H252.194L250.538 82.2362Z" fill="#A2ACBE"/>
<path d="M259.713 87.223V74.6563H256.522V73.26H264.7V74.6563H261.508V87.223H259.713Z" fill="#A2ACBE"/>
<path d="M266.289 87.223V73.26H273.072V74.6563H268.085V79.2442H272.473V80.6404H268.085V85.8267H273.072V87.223H266.289Z" fill="#A2ACBE"/>
<path d="M279.259 87.4225C278.328 87.4225 277.537 87.2163 276.885 86.8041C276.234 86.3786 275.735 85.6472 275.389 84.6099C275.043 83.5594 274.871 82.1032 274.871 80.2415C274.871 78.3798 275.037 76.9303 275.369 75.893C275.715 74.8425 276.2 74.1111 276.825 73.6989C277.45 73.2733 278.195 73.0605 279.06 73.0605C279.658 73.0605 280.23 73.1004 280.775 73.1802C281.333 73.26 281.759 73.3531 282.052 73.4595V74.3571H279.458C278.927 74.3571 278.448 74.5233 278.022 74.8558C277.61 75.1882 277.278 75.78 277.025 76.6311C276.786 77.4689 276.666 78.6723 276.666 80.2415C276.666 81.7974 276.792 83.0009 277.045 83.8519C277.298 84.703 277.643 85.2948 278.082 85.6272C278.534 85.9597 279.06 86.1259 279.658 86.1259H282.251V87.0235C281.958 87.1166 281.533 87.203 280.974 87.2828C280.429 87.3759 279.857 87.4225 279.259 87.4225Z" fill="#A2ACBE"/>
<path d="M287.438 87.4225C286.547 87.4225 285.776 87.2163 285.124 86.8041C284.486 86.3786 283.994 85.6472 283.648 84.6099C283.316 83.5594 283.149 82.1032 283.149 80.2415C283.149 78.3798 283.316 76.9303 283.648 75.893C283.994 74.8425 284.486 74.1111 285.124 73.6989C285.776 73.2733 286.547 73.0605 287.438 73.0605C288.342 73.0605 289.114 73.2733 289.752 73.6989C290.39 74.1111 290.876 74.8425 291.208 75.893C291.554 76.9303 291.727 78.3798 291.727 80.2415C291.727 82.1032 291.554 83.5594 291.208 84.6099C290.876 85.6472 290.39 86.3786 289.752 86.8041C289.114 87.2163 288.342 87.4225 287.438 87.4225ZM287.438 86.2256C287.757 86.2256 288.063 86.1392 288.356 85.9663C288.661 85.7802 288.934 85.4676 289.173 85.0288C289.413 84.59 289.599 83.9849 289.732 83.2136C289.865 82.429 289.931 81.4383 289.931 80.2415C289.931 79.0447 289.865 78.0606 289.732 77.2893C289.599 76.5047 289.413 75.893 289.173 75.4542C288.934 75.0154 288.661 74.7095 288.356 74.5366C288.063 74.3505 287.757 74.2574 287.438 74.2574C287.119 74.2574 286.806 74.3505 286.501 74.5366C286.208 74.7095 285.942 75.0154 285.703 75.4542C285.463 75.893 285.277 76.5047 285.144 77.2893C285.011 78.0606 284.945 79.0447 284.945 80.2415C284.945 81.4383 285.011 82.429 285.144 83.2136C285.277 83.9849 285.463 84.59 285.703 85.0288C285.942 85.4676 286.208 85.7802 286.501 85.9663C286.806 86.1392 287.119 86.2256 287.438 86.2256Z" fill="#A2ACBE"/>
<path d="M297.317 87.4225C296.719 87.4225 296.16 87.3892 295.642 87.3227C295.136 87.2695 294.631 87.1698 294.126 87.0235V73.4595C294.631 73.3132 295.136 73.2135 295.642 73.1603C296.16 73.0938 296.719 73.0605 297.317 73.0605C298.714 73.0605 299.724 73.3664 300.349 73.9781C300.988 74.5765 301.307 75.5007 301.307 76.7508C301.307 77.3492 301.187 77.9077 300.948 78.4263C300.722 78.9449 300.309 79.3705 299.711 79.7029V79.7827C300.509 80.0088 301.074 80.4476 301.407 81.0992C301.739 81.7508 301.905 82.5288 301.905 83.433C301.905 84.8293 301.566 85.8466 300.888 86.485C300.21 87.11 299.02 87.4225 297.317 87.4225ZM295.921 86.1259H297.317C298.315 86.1259 299.026 85.9198 299.452 85.5075C299.891 85.082 300.11 84.3905 300.11 83.433C300.11 82.3825 299.891 81.6378 299.452 81.199C299.026 80.7601 298.315 80.5407 297.317 80.5407H295.921V86.1259ZM295.921 79.2442H297.118C297.916 79.2442 298.514 79.0447 298.913 78.6457C299.312 78.2335 299.512 77.6018 299.512 76.7508C299.512 75.9529 299.312 75.3545 298.913 74.9555C298.514 74.5566 297.916 74.3571 297.118 74.3571H295.921V79.2442Z" fill="#A2ACBE"/>
<line x1="0.243652" y1="110.234" x2="102.936" y2="110.234" stroke="url(#paint0_linear_407_631)" stroke-width="0.798718"/>
<path d="M113.108 114.759C112.547 114.759 112.062 114.629 111.652 114.37C111.25 114.102 110.941 113.642 110.723 112.989C110.514 112.328 110.409 111.412 110.409 110.241C110.409 109.069 110.514 108.157 110.723 107.504C110.941 106.843 111.25 106.383 111.652 106.124C112.062 105.856 112.547 105.722 113.108 105.722C113.677 105.722 114.162 105.856 114.564 106.124C114.965 106.383 115.271 106.843 115.48 107.504C115.697 108.157 115.806 109.069 115.806 110.241C115.806 111.412 115.697 112.328 115.48 112.989C115.271 113.642 114.965 114.102 114.564 114.37C114.162 114.629 113.677 114.759 113.108 114.759ZM113.108 114.006C113.309 114.006 113.501 113.952 113.685 113.843C113.878 113.726 114.049 113.529 114.2 113.253C114.35 112.977 114.467 112.596 114.551 112.111C114.635 111.617 114.677 110.994 114.677 110.241C114.677 109.488 114.635 108.868 114.551 108.383C114.467 107.889 114.35 107.504 114.2 107.228C114.049 106.952 113.878 106.76 113.685 106.651C113.501 106.534 113.309 106.475 113.108 106.475C112.907 106.475 112.71 106.534 112.518 106.651C112.334 106.76 112.166 106.952 112.016 107.228C111.865 107.504 111.748 107.889 111.664 108.383C111.581 108.868 111.539 109.488 111.539 110.241C111.539 110.994 111.581 111.617 111.664 112.111C111.748 112.596 111.865 112.977 112.016 113.253C112.166 113.529 112.334 113.726 112.518 113.843C112.71 113.952 112.907 114.006 113.108 114.006Z" fill="#A2ACBE"/>
<path d="M119.826 114.759C119.24 114.759 118.742 114.629 118.332 114.37C117.922 114.102 117.609 113.642 117.391 112.989C117.174 112.328 117.065 111.412 117.065 110.241C117.065 109.069 117.169 108.157 117.379 107.504C117.596 106.843 117.902 106.383 118.295 106.124C118.688 105.856 119.157 105.722 119.701 105.722C120.077 105.722 120.437 105.747 120.78 105.797C121.131 105.848 121.399 105.906 121.583 105.973V106.538H119.952C119.617 106.538 119.316 106.643 119.048 106.852C118.788 107.061 118.579 107.433 118.42 107.969C118.27 108.496 118.194 109.253 118.194 110.241C118.194 111.22 118.274 111.977 118.433 112.512C118.592 113.048 118.809 113.42 119.086 113.629C119.37 113.839 119.701 113.943 120.077 113.943H121.709V114.508C121.525 114.567 121.257 114.621 120.905 114.671C120.562 114.73 120.203 114.759 119.826 114.759Z" fill="#A2ACBE"/>
<path d="M122.77 114.634V105.848H123.9V109.739H126.536V105.848H127.665V114.634H126.536V110.617H123.9V114.634H122.77Z" fill="#A2ACBE"/>
<path d="M131.873 114.759C131.313 114.759 130.827 114.629 130.417 114.37C130.016 114.102 129.706 113.642 129.489 112.989C129.279 112.328 129.175 111.412 129.175 110.241C129.175 109.069 129.279 108.157 129.489 107.504C129.706 106.843 130.016 106.383 130.417 106.124C130.827 105.856 131.313 105.722 131.873 105.722C132.442 105.722 132.928 105.856 133.329 106.124C133.731 106.383 134.036 106.843 134.246 107.504C134.463 108.157 134.572 109.069 134.572 110.241C134.572 111.412 134.463 112.328 134.246 112.989C134.036 113.642 133.731 114.102 133.329 114.37C132.928 114.629 132.442 114.759 131.873 114.759ZM131.873 114.006C132.074 114.006 132.267 113.952 132.451 113.843C132.643 113.726 132.815 113.529 132.965 113.253C133.116 112.977 133.233 112.596 133.317 112.111C133.4 111.617 133.442 110.994 133.442 110.241C133.442 109.488 133.4 108.868 133.317 108.383C133.233 107.889 133.116 107.504 132.965 107.228C132.815 106.952 132.643 106.76 132.451 106.651C132.267 106.534 132.074 106.475 131.873 106.475C131.673 106.475 131.476 106.534 131.283 106.651C131.099 106.76 130.932 106.952 130.781 107.228C130.631 107.504 130.514 107.889 130.43 108.383C130.346 108.868 130.304 109.488 130.304 110.241C130.304 110.994 130.346 111.617 130.43 112.111C130.514 112.596 130.631 112.977 130.781 113.253C130.932 113.529 131.099 113.726 131.283 113.843C131.476 113.952 131.673 114.006 131.873 114.006Z" fill="#A2ACBE"/>
<path d="M138.09 114.759C137.713 114.759 137.362 114.738 137.035 114.696C136.717 114.663 136.399 114.6 136.081 114.508V105.973C136.399 105.881 136.717 105.818 137.035 105.785C137.362 105.743 137.713 105.722 138.09 105.722C138.968 105.722 139.604 105.915 139.997 106.3C140.399 106.676 140.6 107.258 140.6 108.044C140.6 108.421 140.525 108.772 140.374 109.098C140.232 109.425 139.972 109.693 139.596 109.902V109.952C140.098 110.094 140.453 110.37 140.663 110.78C140.872 111.19 140.976 111.68 140.976 112.249C140.976 113.127 140.763 113.768 140.336 114.169C139.91 114.562 139.161 114.759 138.09 114.759ZM137.211 113.943H138.09C138.717 113.943 139.165 113.814 139.433 113.554C139.709 113.286 139.847 112.851 139.847 112.249C139.847 111.588 139.709 111.119 139.433 110.843C139.165 110.567 138.717 110.429 138.09 110.429H137.211V113.943ZM137.211 109.613H137.964C138.466 109.613 138.843 109.488 139.094 109.237C139.345 108.977 139.47 108.58 139.47 108.044C139.47 107.542 139.345 107.166 139.094 106.915C138.843 106.664 138.466 106.538 137.964 106.538H137.211V109.613Z" fill="#A2ACBE"/>
<path d="M141.73 114.634L143.863 105.848H145.495L147.629 114.634H146.499L145.934 112.374H143.424L142.859 114.634H141.73ZM143.612 111.496H145.746L144.704 107.103H144.654L143.612 111.496Z" fill="#A2ACBE"/>
<path d="M148.755 114.634V105.848H149.885V109.739H152.521V105.848H153.65V114.634H152.521V110.617H149.885V114.634H148.755Z" fill="#A2ACBE"/>
<path d="M157.858 114.759C157.298 114.759 156.812 114.629 156.402 114.37C156.001 114.102 155.691 113.642 155.474 112.989C155.264 112.328 155.16 111.412 155.16 110.241C155.16 109.069 155.264 108.157 155.474 107.504C155.691 106.843 156.001 106.383 156.402 106.124C156.812 105.856 157.298 105.722 157.858 105.722C158.427 105.722 158.913 105.856 159.314 106.124C159.716 106.383 160.021 106.843 160.231 107.504C160.448 108.157 160.557 109.069 160.557 110.241C160.557 111.412 160.448 112.328 160.231 112.989C160.021 113.642 159.716 114.102 159.314 114.37C158.913 114.629 158.427 114.759 157.858 114.759ZM157.858 114.006C158.059 114.006 158.252 113.952 158.436 113.843C158.628 113.726 158.8 113.529 158.95 113.253C159.101 112.977 159.218 112.596 159.302 112.111C159.385 111.617 159.427 110.994 159.427 110.241C159.427 109.488 159.385 108.868 159.302 108.383C159.218 107.889 159.101 107.504 158.95 107.228C158.8 106.952 158.628 106.76 158.436 106.651C158.252 106.534 158.059 106.475 157.858 106.475C157.658 106.475 157.461 106.534 157.268 106.651C157.084 106.76 156.917 106.952 156.766 107.228C156.616 107.504 156.499 107.889 156.415 108.383C156.331 108.868 156.289 109.488 156.289 110.241C156.289 110.994 156.331 111.617 156.415 112.111C156.499 112.596 156.616 112.977 156.766 113.253C156.917 113.529 157.084 113.726 157.268 113.843C157.461 113.952 157.658 114.006 157.858 114.006Z" fill="#A2ACBE"/>
<path d="M167.213 114.759C166.836 114.759 166.485 114.738 166.158 114.696C165.84 114.663 165.522 114.6 165.204 114.508V105.973C165.522 105.881 165.84 105.818 166.158 105.785C166.485 105.743 166.836 105.722 167.213 105.722C168.091 105.722 168.727 105.915 169.12 106.3C169.522 106.676 169.723 107.258 169.723 108.044C169.723 108.421 169.647 108.772 169.497 109.098C169.355 109.425 169.095 109.693 168.719 109.902V109.952C169.221 110.094 169.576 110.37 169.786 110.78C169.995 111.19 170.099 111.68 170.099 112.249C170.099 113.127 169.886 113.768 169.459 114.169C169.032 114.562 168.284 114.759 167.213 114.759ZM166.334 113.943H167.213C167.84 113.943 168.288 113.814 168.556 113.554C168.832 113.286 168.97 112.851 168.97 112.249C168.97 111.588 168.832 111.119 168.556 110.843C168.288 110.567 167.84 110.429 167.213 110.429H166.334V113.943ZM166.334 109.613H167.087C167.589 109.613 167.966 109.488 168.217 109.237C168.468 108.977 168.593 108.58 168.593 108.044C168.593 107.542 168.468 107.166 168.217 106.915C167.966 106.664 167.589 106.538 167.087 106.538H166.334V109.613Z" fill="#A2ACBE"/>
<path d="M175.245 114.634V106.726H173.865V106.099C174.057 106.032 174.325 105.973 174.668 105.923C175.011 105.873 175.371 105.848 175.747 105.848H176.375V114.634H175.245Z" fill="#A2ACBE"/>
<path d="M179.893 114.759C179.516 114.759 179.156 114.73 178.813 114.671C178.47 114.621 178.203 114.567 178.01 114.508V113.943H179.642C179.96 113.943 180.236 113.851 180.47 113.667C180.704 113.475 180.884 113.153 181.01 112.701C181.144 112.249 181.211 111.638 181.211 110.868C181.027 110.927 180.792 110.985 180.508 111.044C180.223 111.094 179.956 111.119 179.704 111.119C179.077 111.119 178.583 110.91 178.223 110.492C177.872 110.073 177.696 109.362 177.696 108.358C177.696 107.412 177.885 106.739 178.261 106.337C178.646 105.927 179.232 105.722 180.018 105.722C180.805 105.722 181.386 105.927 181.763 106.337C182.148 106.739 182.34 107.412 182.34 108.358V111.119C182.34 112.433 182.127 113.37 181.7 113.931C181.282 114.483 180.679 114.759 179.893 114.759ZM180.395 110.366H181.211V108.358C181.211 107.663 181.098 107.178 180.872 106.902C180.646 106.617 180.361 106.475 180.018 106.475C179.675 106.475 179.391 106.617 179.165 106.902C178.939 107.178 178.826 107.663 178.826 108.358C178.826 109.111 178.951 109.634 179.202 109.927C179.462 110.22 179.859 110.366 180.395 110.366Z" fill="#A2ACBE"/>
<path d="M185.605 114.759C185.228 114.759 184.868 114.73 184.525 114.671C184.182 114.621 183.914 114.567 183.722 114.508V113.943H185.354C185.672 113.943 185.948 113.851 186.182 113.667C186.416 113.475 186.596 113.153 186.722 112.701C186.856 112.249 186.922 111.638 186.922 110.868C186.738 110.927 186.504 110.985 186.22 111.044C185.935 111.094 185.667 111.119 185.416 111.119C184.789 111.119 184.295 110.91 183.935 110.492C183.584 110.073 183.408 109.362 183.408 108.358C183.408 107.412 183.596 106.739 183.973 106.337C184.358 105.927 184.944 105.722 185.73 105.722C186.517 105.722 187.098 105.927 187.475 106.337C187.86 106.739 188.052 107.412 188.052 108.358V111.119C188.052 112.433 187.839 113.37 187.412 113.931C186.994 114.483 186.391 114.759 185.605 114.759ZM186.107 110.366H186.922V108.358C186.922 107.663 186.809 107.178 186.584 106.902C186.358 106.617 186.073 106.475 185.73 106.475C185.387 106.475 185.103 106.617 184.877 106.902C184.651 107.178 184.538 107.663 184.538 108.358C184.538 109.111 184.663 109.634 184.914 109.927C185.174 110.22 185.571 110.366 186.107 110.366Z" fill="#A2ACBE"/>
<path d="M189.816 114.634C190.009 113.437 190.293 112.182 190.67 110.868C191.046 109.546 191.515 108.165 192.075 106.726H188.687V105.848H193.205V106.852C192.644 108.232 192.176 109.575 191.799 110.881C191.423 112.186 191.138 113.437 190.946 114.634H189.816Z" fill="#A2ACBE"/>
<line x1="200.628" y1="110.234" x2="303.321" y2="110.234" stroke="url(#paint1_linear_407_631)" stroke-width="0.798718"/>
<defs>
<linearGradient id="paint0_linear_407_631" x1="0.243652" y1="111.133" x2="102.936" y2="111.133" gradientUnits="userSpaceOnUse">
<stop stop-color="#A2ACBE" stop-opacity="0"/>
<stop offset="1" stop-color="#A2ACBE"/>
</linearGradient>
<linearGradient id="paint1_linear_407_631" x1="200.628" y1="111.133" x2="303.321" y2="111.133" gradientUnits="userSpaceOnUse">
<stop stop-color="#A2ACBE"/>
<stop offset="1" stop-color="#A2ACBE" stop-opacity="0"/>
</linearGradient>
<clipPath id="clip0_407_631">
<rect width="302.625" height="57.8126" fill="white" transform="translate(0.243652)"/>
</clipPath>
</defs>
</svg>
