<svg width="32" height="24" viewBox="0 0 32 24" fill="none" xmlns="http://www.w3.org/2000/svg">
<path d="M0 15C0.056775 14.9426 0.113695 14.8857 0.170769 14.8294C0.525608 14.4789 0.901718 14.148 1.29695 13.8436C5.72797 10.2255 11.2498 12.167 15.8018 14.0137C15.8792 14.0437 15.9569 14.0739 16.0351 14.1046C21.4136 16.134 27.4295 14.2681 30.9552 10.4411C31.352 9.99186 31.7078 9.5099 32 9C31.5606 9.38995 31.0909 9.72831 30.6053 10.0295C26.3464 12.5215 21.1679 13.0805 17.0636 11.501C16.9795 11.4676 16.8957 11.4347 16.8122 11.4024C11.7828 9.28915 4.99041 9.87437 1.2595 13.7986C0.887062 14.1333 0.525634 14.4789 0.170769 14.8294C0.113695 14.8857 0.056775 14.9426 0 15Z" fill="#F2F6FD"/>
</svg>
