<svg width="20" height="20" viewBox="0 0 20 20" fill="none" xmlns="http://www.w3.org/2000/svg">
<path d="M13.4355 6.61035C13.1829 6.74984 12.9313 6.89101 12.6807 7.0332C10.5266 8.25512 8.44468 9.57795 6.43359 11C8.44467 12.4221 10.5266 13.7449 12.6807 14.9668C12.9313 15.109 13.1829 15.2502 13.4355 15.3896C13.145 15.7964 12.855 16.2036 12.5645 16.6104C12.3505 16.4166 12.1348 16.2243 11.9189 16.0332C9.97591 14.3135 7.95446 12.7031 5.85449 11.2031L5.57031 11L5.85449 10.7969C7.95446 9.29691 9.97591 7.68646 11.9189 5.9668C12.1348 5.77572 12.3505 5.58344 12.5645 5.38965C12.855 5.79642 13.145 6.20358 13.4355 6.61035Z" fill="#F2F6FD"/>
</svg>
